<?xml version="1.0" encoding="UTF-8"?>
<svg xmlns="http://www.w3.org/2000/svg" xmlns:xlink="http://www.w3.org/1999/xlink" width="20px" height="20px"
    viewBox="0 0 20 20" version="1.1">
    <g id="surface1">
        <path style=" stroke:none;fill-rule:nonzero;fill:rgb(21.176471%,40.784314%,61.960784%);fill-opacity:1;"
            d="M 15.714844 20 L 4.285156 20 C 1.921875 20 0 18.078125 0 15.714844 L 0 4.285156 C 0 1.921875 1.921875 0 4.285156 0 L 11.429688 0 C 11.808594 0 12.171875 0.152344 12.4375 0.417969 C 12.707031 0.6875 12.855469 1.050781 12.855469 1.429688 C 12.855469 1.808594 12.707031 2.171875 12.4375 2.4375 C 12.171875 2.707031 11.808594 2.855469 11.429688 2.855469 L 4.285156 2.855469 C 3.496094 2.855469 2.855469 3.5 2.855469 4.285156 L 2.855469 15.714844 C 2.855469 16.5 3.496094 17.144531 4.285156 17.144531 L 15.714844 17.144531 C 16.503906 17.144531 17.144531 16.5 17.144531 15.714844 L 17.144531 11.429688 C 17.144531 11.050781 17.292969 10.6875 17.5625 10.417969 C 17.828125 10.152344 18.191406 10 18.570312 10 C 18.949219 10 19.3125 10.152344 19.582031 10.417969 C 19.847656 10.6875 20 11.050781 20 11.429688 L 20 15.714844 C 20 18.078125 18.078125 20 15.714844 20 Z M 11.664062 14.046875 C 11.164062 14.046875 10.679688 13.847656 10.320312 13.488281 L 6.511719 9.679688 C 6.167969 9.316406 5.980469 8.839844 5.984375 8.339844 C 5.992188 7.84375 6.191406 7.367188 6.542969 7.015625 C 6.894531 6.664062 7.371094 6.464844 7.867188 6.460938 C 8.367188 6.453125 8.847656 6.640625 9.207031 6.984375 L 11.230469 9.011719 L 16.191406 1.21875 C 16.308594 0.992188 16.472656 0.789062 16.667969 0.628906 C 16.863281 0.464844 17.089844 0.34375 17.335938 0.269531 C 17.578125 0.195312 17.835938 0.171875 18.085938 0.199219 C 18.339844 0.226562 18.585938 0.304688 18.808594 0.429688 C 19.03125 0.550781 19.226562 0.71875 19.382812 0.917969 C 19.542969 1.121094 19.65625 1.351562 19.722656 1.597656 C 19.789062 1.84375 19.808594 2.097656 19.773438 2.351562 C 19.738281 2.601562 19.652344 2.847656 19.523438 3.066406 L 13.332031 13.066406 C 13.191406 13.324219 12.988281 13.542969 12.746094 13.710938 C 12.503906 13.878906 12.226562 13.984375 11.933594 14.027344 Z M 11.664062 14.046875 " />
    </g>
</svg>