<svg width="16" height="17" viewBox="0 0 16 17" fill="none" xmlns="http://www.w3.org/2000/svg">
<path d="M15.1172 13.3788L12.7435 11.0051C12.0772 10.3388 10.9969 10.3388 10.3305 11.0051L9.95915 11.3765C9.66028 11.6746 9.45262 12.0518 9.36049 12.4638C8.5559 12.4788 7.64599 12.342 6.86774 11.8371C6.38972 11.4818 5.93832 11.092 5.51715 10.6708C5.16136 10.3152 4.82775 9.93813 4.51821 9.54163C3.91168 8.72676 3.75162 7.73785 3.7678 6.87113C4.17979 6.77902 4.55697 6.57135 4.85512 6.27248L5.22649 5.9011C5.8928 5.23479 5.8928 4.15448 5.22649 3.48813L2.85277 1.11441C2.40855 0.670195 1.68833 0.670195 1.24415 1.11441L0.836616 1.52204C0.314179 2.04448 0.046741 2.72491 0.0328348 3.40957C-0.100946 4.8541 0.17571 6.44429 0.832929 8.00826C1.26687 9.04088 1.86265 10.0492 2.58824 10.9864C2.5974 10.9986 2.60608 11.011 2.61537 11.0232L2.61643 11.0224C2.98688 11.4977 3.3863 11.9496 3.8124 12.3757C4.25277 12.8164 4.72066 13.2287 5.21324 13.6101L5.20849 13.6164C5.29056 13.6786 5.37426 13.7387 5.45952 13.7964C7.53018 15.328 9.87059 16.1885 12.0485 16.1884C12.1757 16.1883 12.3025 16.1847 12.4286 16.1788C13.2399 16.2785 14.0869 16.0178 14.7096 15.3951L15.1172 14.9875C15.5614 14.5433 15.5614 13.823 15.1172 13.3788Z" fill="#0094FF"/>
</svg>
