<svg width="40" height="40" fill="none" xmlns="http://www.w3.org/2000/svg">
    <path
        d="M39.905 4.523a1.25 1.25 0 00-1.155-.772h-2.5v-2.5a1.25 1.25 0 00-2.135-.885l-3.75 3.75a1.259 1.259 0 00-.365.885v3.232L16.616 21.616a1.25 1.25 0 001.77 1.77L31.768 10H35c.333 0 .65-.133.885-.365l3.75-3.75c.355-.36.462-.895.27-1.363z"
        fill="#36689E" />
    <path
        d="M26.72 18.638l-4.263 4.277C22.245 25.48 20.12 27.5 17.5 27.5c-2.763 0-5-2.237-5-5 0-2.672 2.102-4.837 4.74-4.975l4.197-4.212A9.938 9.938 0 0017.5 12.5c-5.515 0-10 4.485-10 10s4.485 10 10 10 10-4.485 10-10c0-1.37-.28-2.672-.78-3.862z"
        fill="#36689E" />
    <path
        d="M32.242 13.098l-3.685 3.698c.89 1.717 1.442 3.64 1.442 5.704C30 29.393 24.392 35 17.5 35S5 29.393 5 22.5C5 15.608 10.608 10 17.5 10c2.093 0 4.035.566 5.77 1.478l3.68-3.692A17.407 17.407 0 0017.5 5C7.836 5.001 0 12.836 0 22.501 0 32.164 7.835 40 17.5 40c9.664 0 17.499-7.835 17.499-17.5a17.39 17.39 0 00-2.757-9.402z"
        fill="#36689E" />
</svg>